<?xml version="1.0" standalone="no"?><!DOCTYPE svg PUBLIC "-//W3C//DTD SVG 1.1//EN" "http://www.w3.org/Graphics/SVG/1.1/DTD/svg11.dtd"><svg width="100%" height="100%" viewBox="0 0 652 115" version="1.1" xmlns="http://www.w3.org/2000/svg" xmlns:xlink="http://www.w3.org/1999/xlink" xml:space="preserve" style="fill-rule:evenodd;clip-rule:evenodd;stroke-linejoin:round;stroke-miterlimit:1.41421;"><path d="M418.333,39.485l17.652,49.41l-11.94,0l-11.959,-32.457l-11.959,32.457l-11.939,0l17.651,-49.41l-0.151,-0.411l12.797,0l-0.152,0.411Z" style="fill:#000;"/><path d="M621.186,39.074l-12.498,0l4.857,11.926l11.94,0l-4.299,-11.926Z" style="fill:#000;"/><path d="M210.265,39.074l-4.19,11.934l-18.197,0.005l-2.58,7.002l11.966,0l-4.19,11.934l-12.174,0.003l-6.98,18.943l-11.939,0l17.799,-49.821l30.485,0Z" style="fill:#000;"/><path d="M75.981,39.074l31.557,0l-7.265,19.926l5.273,0l-11.241,29.895l-36.622,0l18.298,-49.821ZM86.5,77l3,-8l-12,0l-3,8l12,0ZM87.5,59l3,-8l-6.5,0l-3,8l6.5,0Z" style="fill:#000;"/><path d="M269,39.074l48,0l0,49.821l-12,0l0,-37.895l-24,0l0,37.895l-12,0l0,-49.821Z" style="fill:#000;"/><path d="M539,51l-20,0l0,25.969l12,0l0,-11.895l12,0l0,23.821l-36,0l0,-49.821l32,0l0,11.926Z" style="fill:#000;"/></svg>